Coordinates
version=1
nRows=29
nColumns=24
inDegrees=yes

Units are S.I. units (second, meters, Newtons, ...)
Angles are in degrees.

endheader
time	pelvis_tilt	pelvis_list	pelvis_rotation	pelvis_tx	pelvis_ty	pelvis_tz	hip_flexion_r	hip_adduction_r	hip_rotation_r	knee_angle_r	ankle_angle_r	subtalar_angle_r	mtp_angle_r	hip_flexion_l	hip_adduction_l	hip_rotation_l	knee_angle_l	ankle_angle_l	subtalar_angle_l	mtp_angle_l	lumbar_extension	lumbar_bending	lumbar_rotation
      7.24000000	      6.93424175	     -3.74560803	     -0.52208588	      0.85575432	      0.94665270	     -0.19822604	     14.37037652	      4.89477828	     -4.05858478	    -52.41511238	      2.77146856	     -8.66355361	      0.00000000	     -3.85418234	      1.03190229	     -3.65518637	     -8.69357634	      9.30049327	     -4.69897284	      0.00000000	    -28.16677465	      5.25435748	     -1.30465228
      7.25000000	      6.95909535	     -3.79787652	     -0.30226775	      0.86335865	      0.94676971	     -0.19879995	     14.88873123	      5.01986215	     -4.25779423	    -50.71387840	      3.92428903	     -6.74284133	      0.00000000	     -4.44422122	      0.99623456	     -3.53861710	     -8.57006932	      9.64350667	     -4.59895868	      0.00000000	    -28.21961430	      5.42565343	     -1.73764946
      7.26000000	      7.00972373	     -3.83231616	     -0.04505780	      0.87096305	      0.94683160	     -0.19934038	     15.27937243	      5.11841180	     -4.47136686	    -48.79698555	      4.94850893	     -4.74271806	      0.00000000	     -5.04893383	      0.96810496	     -3.37071634	     -8.46698962	      9.98818881	     -4.50673991	      0.00000000	    -28.31101320	      5.58046529	     -2.22430512
      7.27000000	      7.07784944	     -3.84290134	      0.23964852	      0.87857101	      0.94683392	     -0.19985082	     15.54996123	      5.18582596	     -4.68311576	    -46.67515077	      5.86940700	     -2.70725531	      0.00000000	     -5.65648150	      0.95584838	     -3.15790000	     -8.39133754	     10.31902395	     -4.44608076	      0.00000000	    -28.42832813	      5.71868353	     -2.75552325
      7.28000000	      7.15427017	     -3.84310770	      0.55390045	      0.88621859	      0.94677818	     -0.20033036	     15.70319225	      5.23592083	     -4.90249621	    -44.34585786	      6.64002486	     -0.76074140	      0.00000000	     -6.27124288	      0.94446965	     -2.87443104	     -8.32192887	     10.65495298	     -4.40831029	      0.00000000	    -28.54652495	      5.84917842	     -3.31231362
      7.29000000	      7.21935657	     -3.79723197	      0.86014609	      0.89385444	      0.94662904	     -0.20076461	     15.77511115	      5.24632365	     -5.05205625	    -41.85114736	      7.35875131	      1.12900727	      0.00000000	     -6.83698476	      0.97619707	     -2.61054274	     -8.32166001	     10.91792485	     -4.47330108	      0.00000000	    -28.66396935	      5.93336077	     -3.90536445
      7.30000000	      7.28507482	     -3.74199259	      1.19575064	      0.90154248	      0.94643278	     -0.20118540	     15.73399068	      5.24978926	     -5.17352114	    -39.16285696	      7.82309358	      2.70476177	      0.00000000	     -7.40897016	      1.00754054	     -2.22068011	     -8.32354661	     11.22243889	     -4.48592013	      0.00000000	    -28.76785691	      6.01122337	     -4.48870141
      7.31000000	      7.31432744	     -3.65648177	      1.50601872	      0.90929202	      0.94611978	     -0.20155151	     15.63939432	      5.23032428	     -5.21883036	    -36.33688287	      8.19838875	      4.03363199	      0.00000000	     -7.93588995	      1.06611198	     -1.89101578	     -8.34319413	     11.47192128	     -4.57709414	      0.00000000	    -28.81164268	      6.04809869	     -5.08397558
      7.32000000	      7.31063361	     -3.54164516	      1.82208198	      0.91709054	      0.94571000	     -0.20191507	     15.48639545	      5.19045795	     -5.17210487	    -33.37468015	      8.35583861	      4.94714174	      0.00000000	     -8.41276698	      1.14771106	     -1.53725435	     -8.40415159	     11.72457923	     -4.62532927	      0.00000000	    -28.79923465	      6.06183614	     -5.65586668
      7.33000000	      7.23962626	     -3.40777007	      2.11779294	      0.92498823	      0.94514779	     -0.20223423	     15.32498511	      5.13513860	     -5.04446946	    -30.31780719	      8.41540307	      5.46828903	      0.00000000	     -8.82429150	      1.24230874	     -1.26418050	     -8.46060036	     11.96275786	     -4.64717990	      0.00000000	    -28.67172510	      6.04569297	     -6.23216719
      7.34000000	      7.22346399	     -3.21210433	      2.39742712	      0.93291839	      0.94461015	     -0.20253877	     15.03806222	      5.00981005	     -4.85726748	    -27.20392765	      8.29466992	      5.72849111	      0.00000000	     -9.30910265	      1.40092766	     -0.92587017	     -8.51246938	     12.17710452	     -4.65597390	      0.00000000	    -28.61773323	      5.94636508	     -6.75679014
      7.35000000	      7.18492552	     -3.01428881	      2.65460392	      0.94097537	      0.94399066	     -0.20278799	     14.70351713	      4.89111480	     -4.57100343	    -24.02926078	      8.02424321	      5.46128250	      0.00000000	     -9.79544927	      1.55399618	     -0.64120630	     -8.53104224	     12.36335936	     -4.67204203	      0.00000000	    -28.50196177	      5.83460309	     -7.26134441
      7.36000000	      7.12017296	     -2.77271294	      2.90956144	      0.94908764	      0.94328856	     -0.20302354	     14.35665097	      4.70617478	     -4.29021138	    -20.86403140	      7.65907162	      4.92188830	      0.00000000	    -10.23848741	      1.74559233	     -0.37045727	     -8.59567106	     12.56272741	     -4.60709775	      0.00000000	    -28.35321307	      5.67162833	     -7.72294692
      7.37000000	      7.04506386	     -2.50501440	      3.12683320	      0.95732692	      0.94252360	     -0.20314663	     13.98614926	      4.49198617	     -3.98240529	    -17.73109969	      7.26654907	      4.04328430	      0.00000000	    -10.69280764	      1.95634404	     -0.19109490	     -8.63625783	     12.69514872	     -4.50916860	      0.00000000	    -28.16944379	      5.44301895	     -8.16952109
      7.38000000	      6.99795061	     -2.21257762	      3.33297880	      0.96567770	      0.94175832	     -0.20325679	     13.57309566	      4.21673431	     -3.87407018	    -14.68484875	      6.85488454	      3.21901968	      0.00000000	    -11.19872926	      2.18809962	      0.01280132	     -8.65951272	     12.87218530	     -4.37594907	      0.00000000	    -28.00689563	      5.19357231	     -8.55357795
      7.39000000	      6.95216108	     -1.88183491	      3.52086080	      0.97412889	      0.94096039	     -0.20328667	     13.15758685	      3.88839797	     -3.93987078	    -11.76286606	      6.50682141	      2.43460535	      0.00000000	    -11.70563647	      2.45064327	      0.17471304	     -8.70238472	     12.98322834	     -4.21423501	      0.00000000	    -27.84363722	      4.88191338	     -8.91149580
      7.40000000	      6.91298870	     -1.54634222	      3.70137781	      0.98266265	      0.94014099	     -0.20324219	     12.76559094	      3.53746720	     -4.41236634	     -9.02804279	      6.31399844	      2.01049455	      0.00000000	    -12.20340052	      2.70672529	      0.34368889	     -8.79497838	     13.07833162	     -4.04027314	      0.00000000	    -27.68572498	      4.54867256	     -9.22282128
      7.41000000	      6.86915043	     -1.19484650	      3.84257306	      0.99132886	      0.93928616	     -0.20307779	     12.40517666	      3.18946596	     -5.08203671	     -6.49761407	      6.20741766	      1.75600490	      0.00000000	    -12.72243156	      2.97532571	      0.45019602	     -8.85324113	     13.12080962	     -3.86889473	      0.00000000	    -27.50853290	      4.18057385	     -9.49644560
      7.42000000	      6.87337630	     -0.88274560	      3.94839352	      1.00009998	      0.93846754	     -0.20275313	     12.00157528	      2.92438420	     -5.81326110	     -4.14696638	      6.13285989	      1.63415919	      0.00000000	    -13.28092640	      3.19236096	      0.55204180	     -8.95532915	     13.16891747	     -3.68008510	      0.00000000	    -27.38310912	      3.82641813	     -9.68363543
      7.43000000	      6.90348924	     -0.60264449	      4.03847982	      1.00895005	      0.93765986	     -0.20233383	     11.59527619	      2.72284708	     -6.58567304	     -2.02947800	      6.12598140	      1.65351860	      0.00000000	    -13.84953943	      3.36654873	      0.63169115	     -9.09932742	     13.21712373	     -3.47646899	      0.00000000	    -27.29423985	      3.50697693	     -9.80156355
      7.44000000	      6.96268981	     -0.36082430	      4.07926168	      1.01785985	      0.93688203	     -0.20175904	     11.23074241	      2.58999390	     -7.55584408	     -0.24891914	      6.34453949	      2.22423207	      0.00000000	    -14.40746313	      3.49387774	      0.58735065	     -9.32993965	     13.28539871	     -3.13444262	      0.00000000	    -27.24464263	      3.19633949	     -9.82059621
      7.45000000	      7.00610238	     -0.15855895	      4.11950812	      1.02686812	      0.93605096	     -0.20113936	     10.89409155	      2.51284898	     -8.18598981	      1.26706632	      6.44237709	      2.39338745	      0.00000000	    -14.93836574	      3.58307888	      0.67840238	     -9.59046082	     13.32402972	     -2.94144935	      0.00000000	    -27.15980679	      2.93515134	     -9.80902833
      7.46000000	      7.04088941	      0.02668823	      4.16605503	      1.03593869	      0.93520016	     -0.20049682	     10.60809862	      2.44646589	     -8.61888263	      2.43799482	      6.55479652	      2.43135748	      0.00000000	    -15.41028226	      3.64895685	      0.75952464	     -9.94520117	     13.33030506	     -2.78507190	      0.00000000	    -27.06384967	      2.69620849	     -9.83747991
      7.47000000	      7.10110232	      0.19150127	      4.19012341	      1.04506141	      0.93438679	     -0.19981931	     10.35072277	      2.38939793	     -8.88205434	      3.22327851	      6.70863039	      2.48251140	      0.00000000	    -15.86913148	      3.69584000	      0.84742452	    -10.38096190	     13.30669843	     -2.59755638	      0.00000000	    -27.01572872	      2.47602682	     -9.77654166
      7.48000000	      7.22816889	      0.28698781	      4.23187332	      1.05437095	      0.93366351	     -0.19915835	     10.05234602	      2.38964897	     -9.06482707	      3.64799859	      6.90234105	      2.57666702	      0.00000000	    -16.36834430	      3.64811805	      0.82098208	    -10.87922521	     13.33291738	     -2.33956188	      0.00000000	    -27.01043263	      2.36066085	     -9.71925375
      7.49000000	      7.30333152	      0.38647497	      4.28460820	      1.06374686	      0.93288414	     -0.19852139	      9.87369365	      2.35199868	     -9.11574758	      3.65937972	      7.09001618	      2.57848508	      0.00000000	    -16.76604876	      3.60749777	      0.87943407	    -11.46883286	     13.26360102	     -2.12058351	      0.00000000	    -26.95483081	      2.24371504	     -9.64571034
      7.50000000	      7.48166186	      0.42326945	      4.35268287	      1.07334493	      0.93224464	     -0.19788345	      9.57463838	      2.37296347	     -9.06745001	      3.40609457	      7.16625082	      2.67214394	      0.00000000	    -17.23935072	      3.46474971	      0.73382254	    -12.13238024	     13.29934680	     -1.64612717	      0.00000000	    -26.98811999	      2.22089449	     -9.59164958
      7.51000000	      7.61639826	      0.44571873	      4.45207016	      1.08311879	      0.93156101	     -0.19725663	      9.33044846	      2.39049060	     -8.93010242	      2.89541864	      7.14950860	      2.63641591	      0.00000000	    -17.62317229	      3.29103803	      0.61012632	    -12.88635631	     13.26129755	     -1.13992212	      0.00000000	    -26.94169951	      2.21618397	     -9.53642401
      7.52000000	      7.78252153	      0.42343394	      4.56891980	      1.09308039	      0.93094881	     -0.19661714	      9.03632298	      2.45355154	     -8.65811863	      2.22619709	      6.86322342	      2.48125627	      0.00000000	    -18.01316321	      3.05233802	      0.49141089	    -13.69814371	     13.16574647	     -0.65127973	      0.00000000	    -26.90804600	      2.27276247	     -9.48473927
